# xmcd
#
# Track frame offsets:
#	150
#	16864
#	30631
#	47443
#	57012
#	70813
#	86311
#	103325
#	114328
#	129919
#	144299
#	155622
#	170693
#
# Disc length: 2474 seconds
#
# Revision: 2
# Processed by: cddbd v1.4PL0 Copyright (c) Steve Scherf et al.
# Submitted via: audiograbber 1.80
#
DISCID=9d09a80d
DTITLE=Ann Tayler - Home To Louisiana
DYEAR=1900
DGENRE=
TTITLE0=Shining Star
TTITLE1=1-2-3
TTITLE2=Runaway Train
TTITLE3=We're All Gonna Die Someday
TTITLE4=Home To Louisiana
TTITLE5=Walk The Line
TTITLE6=Another Lovesong
TTITLE7=Feelin Single, Seeing Double
TTITLE8=I Wonder
TTITLE9=When Tomorrow Comes
TTITLE10=Right In The Middle
TTITLE11=Everything Will Be O.K
TTITLE12=Somewhere In My Broken Heart
EXTD=
EXTT0=
EXTT1=
EXTT2=
EXTT3=
EXTT4=
EXTT5=
EXTT6=
EXTT7=
EXTT8=
EXTT9=
EXTT10=
EXTT11=
EXTT12=
PLAYORDER=
